<?xml version="1.0" encoding="utf-8"?>
<!-- Generator: Adobe Illustrator 21.0.2, SVG Export Plug-In . SVG Version: 6.00 Build 0)  -->
<svg version="1.1" id="Capa_1" xmlns="http://www.w3.org/2000/svg" xmlns:xlink="http://www.w3.org/1999/xlink" x="0px" y="0px"
	 viewBox="0 0 49.7 49.7" style="enable-background:new 0 0 49.7 49.7;" xml:space="preserve">
<style type="text/css">
	.st0{fill:#17A2B8;}
</style>
<g>
	<g>
		<g>
			<path class="st0" d="M21.5,28.9c-0.2-0.1-0.3-0.2-0.5-0.3c-0.5-0.2-1-0.2-1.6-0.2h-0.1c-2.5,0-4.7,1.5-4.7,3.3
				c0,1.9,1.9,3.4,4.3,3.4c3.2,0,4.8-1.1,4.8-3.3c0-0.2,0-0.4-0.1-0.6C23.4,30.3,22.7,29.7,21.5,28.9z"/>
			<path class="st0" d="M19.7,22.4C19.7,22.4,19.7,22.4,19.7,22.4c0.6,0,1.1-0.2,1.5-0.7c0.6-0.7,0.9-1.9,0.7-3.1
				c-0.3-2.2-1.8-4-3.5-4.1l-0.1,0c-0.6,0-1.1,0.2-1.5,0.7c-0.6,0.7-0.9,1.8-0.7,3C16.5,20.4,18.1,22.3,19.7,22.4L19.7,22.4
				L19.7,22.4z"/>
			<path class="st0" d="M24.8,0C11.1,0,0,11.1,0,24.8c0,13.7,11.1,24.8,24.8,24.8c13.7,0,24.8-11.1,24.8-24.8
				C49.7,11.1,38.5,0,24.8,0z M22,36.9c-0.9,0.3-2,0.4-3,0.4c-1.2,0-2.3-0.1-3.4-0.4c-2.1-0.5-3.6-1.5-4.3-2.8
				c-0.3-0.5-0.5-1.1-0.5-1.7c0-0.6,0.1-1.3,0.4-1.9c1.1-2.4,4.1-4,7.4-4c0,0,0.1,0,0.1,0c-0.3-0.5-0.4-1-0.4-1.5
				c0-0.3,0-0.5,0.1-0.8c-3.5-0.1-6-2.6-6-5.9c0-2.4,1.9-4.6,4.6-5.6c0.8-0.3,1.6-0.4,2.4-0.4h7.4c0.3,0,0.5,0.2,0.6,0.4
				c0.1,0.2,0,0.5-0.2,0.6l-1.7,1.2c-0.1,0.1-0.2,0.1-0.3,0.1h-0.6c0.8,0.9,1.2,2.2,1.2,3.7c0,1.6-0.8,3.1-2.3,4.3
				c-1.1,0.9-1.2,1.1-1.2,1.7c0,0.3,0.8,1.2,1.7,1.8c2.1,1.5,2.8,2.9,2.8,5.3C26.8,33.9,24.9,36.1,22,36.9z M38.6,24.3
				c0,0.3-0.3,0.6-0.6,0.6h-4.2V29c0,0.3-0.3,0.6-0.6,0.6h-1.2c-0.3,0-0.6-0.3-0.6-0.6v-4.2h-4.2c-0.3,0-0.6-0.3-0.6-0.6v-1.2
				c0-0.3,0.3-0.6,0.6-0.6h4.2v-4.2c0-0.3,0.3-0.6,0.6-0.6h1.2c0.3,0,0.6,0.3,0.6,0.6v4.2h4.2c0.3,0,0.6,0.3,0.6,0.6L38.6,24.3
				L38.6,24.3z"/>
		</g>
	</g>
</g>
</svg>
