<?xml version="1.0" encoding="utf-8"?>
<!-- Generator: Adobe Illustrator 21.0.2, SVG Export Plug-In . SVG Version: 6.00 Build 0)  -->
<svg version="1.1" xmlns="http://www.w3.org/2000/svg" xmlns:xlink="http://www.w3.org/1999/xlink" x="0px" y="0px"
	 viewBox="0 0 262.5 177" style="enable-background:new 0 0 262.5 177;" xml:space="preserve">
<style type="text/css">
	.st0{fill:#F7941D;}
	.st1{stroke:#000000;stroke-miterlimit:10;}
	.st2{fill:#FFFFFF;}
	.st3{fill:none;stroke:#000000;stroke-width:3;stroke-miterlimit:10;}
	.st4{fill:none;}
	.st5{display:none;}
	.st6{font-family:'Mermaid-Bold';}
	.st7{font-size:70px;}
	.st8{font-size:55px;}
	.st9{font-size:50px;}
	.st10{letter-spacing:-2;}
</style>
<g id="Calque_3">
	<path class="st0" d="M82.9,27.1c0,0-28.5,1.7-38.1,17.3c0,0-11-0.5-23.4,14.7c-8.7,10.8-11.4,13.3-11.4,13.3s-8.8,24.9,58.9,45.5
		c5.8,1.8,2.4,11.8,6.1,16.6c6,7.8,26.7,8.2,34.3-11.1c1-2.5-0.9-5.3-7.8-7.9c0,0,34.6-1.4,39.8,1.4c9.3,4.9,26.7,6.4,39.4-0.6
		c5.1-2.8,28.6-15.3,5-24.8c0,0,32.7,7.9,37,11.4c4.3,3.5,29.6,13.7,30.1-23.9c0.4-37.6-19.5-42.4-35.9-34.2s-19-7.4-19-7.4
		s-7.4-22.4-44.6-14.2c0,0-9.9,1.6-14.3-4.4S107.6-8,82.9,27.1z"/>
	<circle class="st1" cx="41.3" cy="64.3" r="5.8"/>
	<path class="st2" d="M49.8,38.8c0,0,7-7.8,23.1-10.1c6.7-1,30.8,62-3.5,89.4l-10-3.3C59.3,114.8,85.8,82.4,49.8,38.8z"/>
	<path class="st2" d="M237.5,43.2c0,0-29,17.5-21.6,56.5l-12.1-2.9c0,0-10.2-26.7-3.5-54c0,0,4.6,8.9,18.6,1
		C222.9,41.5,233.1,39,237.5,43.2z"/>
	<path class="st2" d="M141.8,21.3c0,0-4.8,9.6-9.8,13.7c-11,9.2-24.8,20-8.4,52c4.8,9.3,1.5,17.3,6,28c0,0,6.7-0.1,12.4,1.9
		c0,0-15.8-73.9,18.2-94.9C160.2,22.1,147.3,24.5,141.8,21.3z"/>
	<path class="st1" d="M108.2,114.2c0,0,27.7-4.1,21.3-32.3c-2.2-9.8-13.3-23-35.7-10c0,0,18.7-2,23.3,16.7
		C121.8,107.2,108.2,114.2,108.2,114.2z"/>
	<path class="st3" d="M190.3,92.8c0,0,4.1,0.7,12.5,3c-9.4-24.4-4-52.9-4-52.9c-1.3-2.2-1.6-4.4-1.6-4.4s-6.5-19.8-38.4-14.6
		c0,0-32.6,7.7-16.4,91.4c0.8,4,25.8,7.8,38.3-0.4C185.3,111.8,205.3,103.8,190.3,92.8z"/>
	<path class="st3" d="M216.3,99.1c0,0,5.9,2.2,6.8,3c4.2,3.4,28.8,13.3,29.2-23.2c0.2-21.3-6.2-31.7-14.8-35.2
		C237.6,43.7,209.4,61.6,216.3,99.1z"/>
	<g>
		<path d="M186.5,91.3c0,0,20.5,8.2,1.3,20s-22,8.5-22,8.5S200.4,108.3,186.5,91.3z"/>
		<path d="M186.5,91.2c0.1,0,0.1,0,0.1,0l0,0l0.1,0l0.2,0.1l0.4,0.2l0.7,0.4c0.5,0.2,1,0.5,1.4,0.8c0.9,0.5,1.9,1.2,2.7,1.8
			c1.7,1.4,3.3,3.1,3.8,5.2c0.3,1.1,0.2,2.2-0.1,3.3c-0.3,1.1-0.9,2.1-1.5,2.9c-1.3,1.8-3.1,3.2-4.9,4.4c-3.7,2.4-7.4,4.6-11.3,6.5
			c-2,1-4,1.9-6,2.6c-1,0.3-2.1,0.7-3.2,0.9c-0.3,0.1-0.6,0.1-0.8,0.1c-0.3,0-0.6,0.1-0.9,0c-0.3,0-0.6,0-0.9-0.1
			c-0.3-0.1-0.6-0.1-1-0.5l-0.5-0.5l0.7-0.3c3.3-1.2,6.5-2.6,9.5-4.2c3.1-1.6,6-3.5,8.6-5.8c2.6-2.2,4.9-5.1,5.5-8.4
			c0.3-1.7,0.2-3.4-0.4-5.1c-0.3-0.8-0.6-1.6-1.1-2.4c-0.2-0.4-0.4-0.8-0.7-1.1L186.5,91.2z M186.5,91.3c1.1,1.2,2.2,2.8,2.8,4.4
			c0.7,1.7,0.9,3.5,0.6,5.3c-0.3,1.8-1,3.5-2,5c-1,1.5-2.2,2.8-3.5,4c-2.6,2.4-5.7,4.3-8.8,6c-3.1,1.6-6.4,3-9.7,4.2l0.2-0.7
			c0,0,0.1,0.1,0.2,0.1c0.1,0,0.2,0.1,0.3,0.1c0.2,0,0.5,0.1,0.7,0.1c0.2,0,0.5,0,0.8,0c0.3,0,0.5,0,0.8-0.1c1-0.2,2.1-0.5,3.1-0.8
			c2-0.7,4-1.5,6-2.5c3.9-1.9,7.7-4.1,11.3-6.4c1.8-1.2,3.5-2.6,4.8-4.2c1.3-1.6,2.2-3.8,1.6-5.9c-0.5-2.1-2-3.8-3.6-5.2
			C190.4,93.3,188.4,92.2,186.5,91.3z"/>
	</g>
	<g>
		<path d="M142.1,21.8C125.9,0.1,104.5,9,104.5,9c19.1-4.1,28.4,9.4,34.1,13.5c0.9,0.6-6.7,10.8-16.6,18.5c-11.5,8.9-9,30.3-6,38.3
			s6.7,33.5,10.8,35.2c0.4,0.2,2.7,0.4,2.7,0.4s-13.8-48.3-13.6-53.5c0.3-6.2,1.9-14,10.6-21.1C137.9,31,142.9,22.9,142.1,21.8z"/>
		<path d="M142.1,21.8c-1.2-1.3-2.2-2.8-3.5-4l-1.9-1.8c-0.3-0.3-0.6-0.6-1-0.9l-1.1-0.8l-2.1-1.6l-2.3-1.4
			c-0.7-0.5-1.6-0.8-2.4-1.2c-0.8-0.3-1.6-0.8-2.5-1c-3.3-1.2-6.9-1.7-10.4-1.7c-3.5,0-7.1,0.6-10.4,1.8l-0.1-0.2l2.2-0.4l1.1-0.2
			c0.4-0.1,0.8-0.1,1.1-0.1l2.3-0.1l2.3,0.1c3,0.2,6,0.9,8.8,2c2.8,1.2,5.4,2.8,7.8,4.6c2.4,1.8,4.6,3.9,6.8,5.9
			c0.6,0.5,1.1,1,1.7,1.4l0.1,0.1c0,0,0.2,0.2,0.2,0.3c0,0.2,0,0.3,0,0.4c-0.1,0.2-0.1,0.4-0.2,0.6c-0.2,0.4-0.4,0.7-0.6,1
			c-0.8,1.3-1.7,2.5-2.7,3.7c-1.9,2.4-3.9,4.6-6.1,6.7c-2.1,2.1-4.4,4.1-6.8,6c-1.2,0.9-2.3,1.9-3.2,3.1c-0.9,1.2-1.7,2.4-2.4,3.7
			c-2.6,5.3-3.3,11.5-3.1,17.4c0.1,3,0.5,6,1.1,8.9c0.3,1.5,0.7,2.9,1.1,4.3c0.5,1.4,1,2.9,1.4,4.3c1.6,5.8,2.8,11.7,4.2,17.6
			c0.7,2.9,1.5,5.8,2.5,8.6c0.5,1.4,1,2.8,1.8,4c0.1,0.2,0.2,0.3,0.3,0.4c0.1,0.1,0.2,0.3,0.3,0.4c0.1,0.1,0.2,0.2,0.3,0.2
			c0.1,0,0.1,0.1,0.2,0.1l0.2,0.1c0.7,0.1,1.5,0.2,2.2,0.3L129,115c-2.4-8.4-4.7-16.7-7-25.1c-1.1-4.2-2.2-8.4-3.3-12.6
			c-1-4.2-2.1-8.4-2.9-12.7l-0.3-1.6c0-0.6-0.1-1.1-0.1-1.7c0.1-1.1,0.2-2.2,0.3-3.3c0.3-2.2,0.9-4.3,1.7-6.4
			c1.6-4.1,4.4-7.6,7.7-10.5c3.4-2.8,6.7-5.6,9.7-8.7c1.5-1.6,2.9-3.2,4.3-4.9c0.7-0.9,1.3-1.8,1.8-2.7c0.3-0.5,0.5-0.9,0.8-1.4
			C142,22.8,142.3,22.2,142.1,21.8z M142.2,21.7c0.1,0.3,0.1,0.6,0,0.8c-0.1,0.3-0.2,0.5-0.3,0.8c-0.2,0.5-0.5,1-0.8,1.5
			c-0.6,0.9-1.2,1.8-1.8,2.7c-1.3,1.7-2.7,3.4-4.2,5c-3,3.2-6.3,6.1-9.6,8.9c-3.2,2.9-5.9,6.4-7.5,10.4c-0.8,2-1.3,4.1-1.6,6.2
			c-0.1,1.1-0.2,2.1-0.3,3.2c0,0.5,0.1,1,0.1,1.6l0.3,1.6c1.7,8.5,4.2,16.8,6.4,25.2c2.3,8.4,4.6,16.8,7,25.1l0.2,0.7l-0.7-0.1
			c-0.8-0.1-1.5-0.2-2.3-0.3c-0.4,0-1-0.3-1.2-0.6c-0.2-0.1-0.3-0.3-0.4-0.5c-0.1-0.2-0.3-0.3-0.4-0.5c-0.9-1.4-1.4-2.8-1.9-4.2
			c-1-2.9-1.7-5.8-2.4-8.7c-1.4-5.9-2.6-11.8-4.1-17.6c-0.4-1.5-0.8-2.8-1.4-4.3c-0.5-1.5-0.8-2.9-1.2-4.4c-0.6-3-1-6-1.1-9
			c-0.2-6,0.5-12.3,3.3-17.8c0.7-1.4,1.5-2.7,2.5-3.8c1-1.2,2.1-2.2,3.3-3.1c2.4-1.8,4.6-3.8,6.8-5.9c2.1-2.1,4.2-4.3,6.1-6.6
			c0.9-1.2,1.9-2.4,2.6-3.6c0.2-0.3,0.4-0.6,0.5-1c0.1-0.2,0.1-0.3,0.2-0.5c0-0.1,0-0.1,0-0.1c0,0,0.1,0.1,0,0l-0.1-0.1
			c-0.6-0.5-1.2-0.9-1.8-1.4c-2.3-2-4.4-4.1-6.8-5.9c-2.4-1.8-4.9-3.5-7.7-4.6c-2.8-1.2-5.7-1.8-8.7-2.1l-2.2-0.1L109,8.5
			c-0.4,0-0.7,0-1.1,0.1l-1.1,0.2l-2.2,0.4l-0.1-0.2c3.4-1.2,6.9-1.8,10.5-1.8c3.6,0,7.1,0.5,10.5,1.8c0.9,0.2,1.7,0.7,2.5,1
			c0.8,0.4,1.6,0.7,2.4,1.2l2.3,1.4l2.1,1.6l1.1,0.8c0.3,0.3,0.6,0.6,1,0.9l1.9,1.9C139.9,18.9,141,20.4,142.2,21.7z"/>
	</g>
	<path class="st1" d="M101.7,115.5c0,0,10.6,2.6,7.1,9.4s-8.4,14.1-20.4,14.6S74,130.6,74,130.6s12.1,12.3,22.9,2.5
		C114.8,116.9,101.7,115.5,101.7,115.5z"/>
	<path class="st1" d="M49.8,38.8c0,0,35.1,37.6,9.5,76l-2.8-1.6c0,0,28-28.3-8.2-72.7L49.8,38.8z"/>
	<path class="st1" d="M72.9,28.6l2.8-0.3c0,0,36,49.5-4,91l-2.3-1.3C69.3,118,108.3,87.6,72.9,28.6z"/>
</g>
<g id="Calque_2">
	<rect x="0.2" y="98.5" class="st4" width="265.7" height="69.3"/>
	<g class="st5">
	</g>
	<rect x="106.5" y="111" class="st4" width="156.7" height="57.8"/>
	<text transform="matrix(1 0 0 1 106.5002 163.5391)" class="st2 st6 st7">Reef</text>
	<rect x="21.5" y="122.3" class="st4" width="86.1" height="63.7"/>
	<text transform="matrix(1 0 0 1 21.5 163.5309)"><tspan x="0" y="0" class="st2 st6 st8">T</tspan><tspan x="33.3" y="0" class="st2 st6 st9 st10">he</tspan></text>
</g>
</svg>
